<svg width="40" height="40" viewBox="0 0 40 40" fill="none" xmlns="http://www.w3.org/2000/svg">
<path d="M10.3 19.6194L14.5 21.2194L16.1 26.5194C16.2 26.8194 16.6 27.0194 16.9 26.7194L19.3 24.8194C19.5 24.6194 19.9 24.6194 20.2 24.8194L24.5 27.9194C24.8 28.1194 25.2 28.0194 25.3 27.6194L28.4 12.6194C28.5 12.2194 28.1 11.9194 27.7 12.0194L10.3 18.7194C9.9 18.9194 9.9 19.5194 10.3 19.6194ZM15.9 20.4194L24.2 15.3194C24.4 15.2194 24.5 15.4194 24.4 15.5194L17.6 21.9194C17.4 22.1194 17.2 22.4194 17.2 22.8194L17 24.5194C17 24.7194 16.6 24.8194 16.6 24.5194L15.7 21.3194C15.5 21.0194 15.6 20.6194 15.9 20.4194Z" fill="black"/>
<circle cx="20" cy="20" r="19.5" stroke="black"/>
</svg>
