<svg width="40" height="40" viewBox="0 0 40 40" fill="none" xmlns="http://www.w3.org/2000/svg">
<path d="M20.7782 13C19.5109 13 18.731 13 17.5611 13C16.5863 13 16.0988 13.4 16.0988 13.6C16.0988 13.8 16.5863 14 16.8787 14.2C17.1712 14.4 17.4636 15 17.4636 15.4V18.8C17.4636 19.1 17.3662 19.3 17.1712 19.6C17.0737 19.7 16.8787 19.7 16.7812 19.7C16.6838 19.7 16.4888 19.7 16.3913 19.5C15.124 17.8 15.124 17.6 13.3692 14.2C13.0767 14.1 12.9793 13.9 12.8818 13.8C12.6868 13.6 12.3943 13.6 12.0044 13.6C10.5421 13.6 9.66471 13.6 8.78732 13.6C7.90994 13.6 7.90994 14.1 8.10492 14.4C9.17727 16.7 10.2496 18.8 11.517 21C12.9793 23.6 14.2466 25.1 16.4888 26.2C16.9762 26.5 17.9511 26.7 19.0234 26.7H21.2656C21.5581 26.7 22.0455 26.5 22.0455 26.1V24.3C22.0455 23.8 22.533 23.6 22.8254 23.5C23.1179 23.4 23.5078 23.6 23.6053 23.8C24.8726 25.2 24.7752 25.1 25.945 26.3C26.2375 26.6 26.4324 26.7 26.9199 26.7C30.2344 26.7 30.3319 26.7 31.1118 26.7C31.3068 26.7 31.6967 26.4 31.6967 26.2C31.7942 26 31.9892 25.4 31.6967 25C30.5269 23.6 29.357 22.4 28.1872 21.1C28.0897 21 27.9922 20.9 27.9922 20.7C27.9922 20.6 28.0897 20.4 28.1872 20.3C29.4545 18.5 30.5269 16.9 31.6967 15C32.0867 14.4 31.9892 13.9 31.9892 13.8C31.8917 13.6 31.6967 13.4 31.4042 13.4C29.8445 13.4 29.1621 13.4 27.5048 13.4C27.0173 13.4 26.5299 13.4 26.3349 14C25.6525 15.6 24.3852 18.1 23.4103 19.2C23.2154 19.4 22.9229 19.5 22.7279 19.5C22.533 19.5 22.2405 19.3 22.2405 19C22.2405 17.2 22.2405 15.7 22.2405 14C22.2405 13.5 22.0455 13.3 21.8505 13.2C21.4606 13.1 21.0707 13 20.7782 13Z" fill="black"/>
<circle cx="20" cy="20" r="19.5" stroke="black"/>
</svg>
