<svg width="40" height="40" viewBox="0 0 40 40" fill="none" xmlns="http://www.w3.org/2000/svg">
<path d="M28.5 26.7002C27.4 27.5002 22 27.5002 20 27.5002C17.9 27.5002 12.9 27.5002 11.7 26.8002C10.6 26.1002 10.1 23.3002 10 20.5002C10 17.7002 10.6 14.6002 11.7 14.0002C12.9 13.2002 18 13.2002 20 13.2002C22 13.2002 27.3 13.2002 28.5 14.0002C29.5 14.7002 30 17.7002 30 20.4002C29.9 23.2002 29.5 26.0002 28.5 26.7002ZM18.1 16.6002V24.2002L23.8 20.4002L18.1 16.6002Z" fill="black"/>
<circle cx="20" cy="20" r="19.5" stroke="black"/>
</svg>
