<svg width="120" height="108" viewBox="0 0 120 108" fill="none" xmlns="http://www.w3.org/2000/svg">
<g filter="url(#filter0_d_406_544)">
<path d="M21.9814 97.4195H25.8694C26.1894 97.4195 26.3494 97.6995 26.3494 98.2595C26.3494 98.8195 26.1894 99.0995 25.8694 99.0995H21.9814C20.6054 99.0995 19.6294 98.7715 19.0534 98.1155C18.4774 97.4435 18.1894 96.3635 18.1894 94.8755V81.7715C18.1894 81.4035 18.5094 81.2195 19.1494 81.2195C19.7894 81.2195 20.1094 81.4035 20.1094 81.7715V94.8755C20.1094 95.8035 20.2454 96.4595 20.5174 96.8435C20.8054 97.2275 21.2934 97.4195 21.9814 97.4195ZM37.4605 95.9075V87.8915C37.4605 86.6435 36.3645 86.0195 34.1725 86.0195C31.9965 86.0195 30.9085 86.6435 30.9085 87.8915V95.9075C30.9085 97.1555 31.9965 97.7795 34.1725 97.7795C36.3645 97.7795 37.4605 97.1555 37.4605 95.9075ZM39.3805 88.1315V95.6675C39.3805 96.9955 38.9085 97.9635 37.9645 98.5715C37.0205 99.1635 35.7645 99.4595 34.1965 99.4595C32.6285 99.4595 31.3645 99.1635 30.4045 98.5715C29.4605 97.9635 28.9885 96.9955 28.9885 95.6675V88.1315C28.9885 86.8035 29.4605 85.8435 30.4045 85.2515C31.3485 84.6435 32.6045 84.3395 34.1725 84.3395C35.7405 84.3395 36.9965 84.6435 37.9405 85.2515C38.9005 85.8435 39.3805 86.8035 39.3805 88.1315ZM52.648 95.9075V87.8915C52.648 86.6435 51.552 86.0195 49.36 86.0195C47.184 86.0195 46.096 86.6435 46.096 87.8915V95.9075C46.096 97.1555 47.184 97.7795 49.36 97.7795C51.552 97.7795 52.648 97.1555 52.648 95.9075ZM54.568 88.1315V95.6675C54.568 96.9955 54.096 97.9635 53.152 98.5715C52.208 99.1635 50.952 99.4595 49.384 99.4595C47.816 99.4595 46.552 99.1635 45.592 98.5715C44.648 97.9635 44.176 96.9955 44.176 95.6675V88.1315C44.176 86.8035 44.648 85.8435 45.592 85.2515C46.536 84.6435 47.792 84.3395 49.36 84.3395C50.928 84.3395 52.184 84.6435 53.128 85.2515C54.088 85.8435 54.568 86.8035 54.568 88.1315ZM69.9955 88.1315V98.6675C69.9955 99.0355 69.6755 99.2195 69.0355 99.2195C68.3955 99.2195 68.0755 99.0355 68.0755 98.6675V87.8915C68.0755 86.6435 66.9795 86.0195 64.7875 86.0195C62.6115 86.0195 61.5235 86.6435 61.5235 87.8915V98.6675C61.5235 99.0355 61.2035 99.2195 60.5635 99.2195C59.9235 99.2195 59.6035 99.0355 59.6035 98.6675V88.1315C59.6035 86.8035 60.0755 85.8435 61.0195 85.2515C61.9635 84.6435 63.2195 84.3395 64.7875 84.3395C66.3555 84.3395 67.6115 84.6435 68.5555 85.2515C69.5155 85.8435 69.9955 86.8035 69.9955 88.1315ZM84.2352 95.9075V93.5555C84.2352 92.7875 84.0992 92.2435 83.8272 91.9235C83.5712 91.6035 83.0192 91.4435 82.1712 91.4435H80.3232C80.0032 91.4435 79.8432 91.1635 79.8432 90.6035C79.8432 90.0435 80.0032 89.7635 80.3232 89.7635H82.1712C83.5792 89.7635 84.5952 90.0515 85.2192 90.6275C85.8432 91.2035 86.1552 92.1795 86.1552 93.5555V95.6675C86.1552 96.9955 85.6352 97.9635 84.5952 98.5715C83.5712 99.1635 82.2112 99.4595 80.5152 99.4595C76.8672 99.4595 75.0432 98.1955 75.0432 95.6675V84.7715C75.0432 83.4435 75.5392 82.4835 76.5312 81.8915C77.5392 81.2835 78.8592 80.9795 80.4912 80.9795C84.0272 80.9795 85.7952 82.2435 85.7952 84.7715V86.0915C85.7952 86.4595 85.4752 86.6435 84.8352 86.6435C84.1952 86.6435 83.8752 86.4595 83.8752 86.0915V84.5315C83.8752 83.2835 82.7232 82.6595 80.4192 82.6595C78.1152 82.6595 76.9632 83.2835 76.9632 84.5315V95.9075C76.9632 97.1555 78.1712 97.7795 80.5872 97.7795C83.0192 97.7795 84.2352 97.1555 84.2352 95.9075ZM98.937 95.9075V87.8915C98.937 86.6435 97.841 86.0195 95.649 86.0195C93.473 86.0195 92.385 86.6435 92.385 87.8915V95.9075C92.385 97.1555 93.473 97.7795 95.649 97.7795C97.841 97.7795 98.937 97.1555 98.937 95.9075ZM100.857 88.1315V95.6675C100.857 96.9955 100.385 97.9635 99.441 98.5715C98.497 99.1635 97.241 99.4595 95.673 99.4595C94.105 99.4595 92.841 99.1635 91.881 98.5715C90.937 97.9635 90.465 96.9955 90.465 95.6675V88.1315C90.465 86.8035 90.937 85.8435 91.881 85.2515C92.825 84.6435 94.081 84.3395 95.649 84.3395C97.217 84.3395 98.473 84.6435 99.417 85.2515C100.377 85.8435 100.857 86.8035 100.857 88.1315Z" fill="#00D5FF"/>
</g>
<rect y="20.398" width="120" height="59.7015" rx="10" fill="#4B73A6"/>
<rect x="8.99902" y="27.8607" width="102" height="44.7761" rx="5" fill="#00D5FF"/>
<path d="M37.5072 63.4687C38.6276 63.1696 39.2062 62.1911 38.639 61.2632C38.1392 60.4305 36.6923 60.2438 35.9735 60.5036C35.2547 60.7633 34.7673 61.7805 35.1284 62.54C35.4882 63.2895 36.834 63.6512 37.5072 63.4687Z" fill="white"/>
<path d="M53.5835 44.1917L52.726 34.8819C49.5956 36.3323 46.8885 38.3363 44.7969 40.7516C42.6231 43.5526 47.2342 48.3389 49.5839 50.4764C49.7136 50.5956 49.8794 50.6838 50.0641 50.7321C50.2487 50.7804 50.4456 50.7869 50.6343 50.7509C50.823 50.715 50.9967 50.638 51.1375 50.5278C51.2783 50.4176 51.381 50.2782 51.4351 50.124L53.5835 44.1917Z" fill="#FF851B"/>
<path d="M47.0986 42.7414C48.6945 40.8517 50.6955 39.2212 53.002 37.9311L52.7346 34.8894C49.6043 36.3399 46.8972 38.3438 44.8056 40.7591C42.6232 43.5526 47.2343 48.3389 49.584 50.4764C49.728 50.6066 49.9159 50.6979 50.1232 50.7384C47.8719 48.3099 45.3962 44.9449 47.0986 42.7414Z" fill="#FF866E"/>
<path d="M53.5835 44.1917L52.726 34.8819C49.5956 36.3323 46.8885 38.3363 44.7969 40.7516C42.6231 43.5526 47.2342 48.3389 49.5839 50.4764C49.7136 50.5956 49.8794 50.6838 50.0641 50.7321C50.2487 50.7804 50.4456 50.7869 50.6343 50.7509C50.823 50.715 50.9967 50.638 51.1375 50.5278C51.2783 50.4176 51.381 50.2782 51.4351 50.124L53.5835 44.1917Z" stroke="#45413C" stroke-linecap="round" stroke-linejoin="round"/>
<path d="M65.6259 44.4823L67.1186 35.2278C70.1415 36.821 72.7043 38.9464 74.625 41.4533C76.6401 44.3235 71.7455 48.8568 69.2171 50.909C69.0794 51.0218 68.9078 51.1022 68.7202 51.1417C68.5325 51.1812 68.3355 51.1784 68.1496 51.1337C67.9637 51.0889 67.7955 51.0038 67.6625 50.8872C67.5294 50.7706 67.4364 50.6266 67.3929 50.4701L65.6259 44.4823Z" fill="#FF851B"/>
<path d="M72.1724 43.3606C70.7106 41.3931 68.8207 39.668 66.599 38.273L67.0824 35.2563C70.1053 36.8494 72.6681 38.9749 74.5888 41.4818C76.6039 44.352 71.7093 48.8853 69.1809 50.9375C69.0273 51.0596 68.8339 51.1418 68.6246 51.1737C71.0726 48.885 73.7401 45.6117 72.1724 43.3606Z" fill="#FF866E"/>
<path d="M65.6259 44.4823L67.1186 35.2278C70.1415 36.821 72.7043 38.9464 74.625 41.4533C76.6401 44.3235 71.7455 48.8568 69.2171 50.909C69.0794 51.0218 68.9078 51.1022 68.7202 51.1417C68.5325 51.1812 68.3355 51.1784 68.1496 51.1337C67.9637 51.0889 67.7955 51.0038 67.6625 50.8872C67.5294 50.7706 67.4364 50.6266 67.3929 50.4701L65.6259 44.4823Z" stroke="#45413C" stroke-linecap="round" stroke-linejoin="round"/>
<path d="M72.3797 22.3079C72.411 14.1555 64.8224 10.0763 61.9297 8.82049C61.589 8.66868 61.2105 8.58449 60.8239 8.57452C60.4415 8.56975 60.0624 8.63335 59.7122 8.76099C56.7383 9.87881 48.8738 13.6017 48.382 21.7727C47.7029 31.8016 53.4694 44.167 53.4694 44.167L65.8388 44.458C65.8388 44.458 72.3356 32.3811 72.3797 22.3079Z" fill="#E8F4FA"/>
<path d="M53.6759 23.1437C54.1764 15.2369 61.5986 11.5182 64.781 10.2513C63.8924 9.70364 62.9543 9.21339 61.9751 8.7849C61.6267 8.63364 61.2403 8.55264 60.8471 8.54849C60.4539 8.54433 60.0651 8.61714 59.7122 8.76099C56.7383 9.87881 48.8738 13.6017 48.382 21.7727C47.7029 31.8016 53.4694 44.167 53.4694 44.167L58.2228 44.2788C56.7836 40.8576 53.1508 31.2552 53.6759 23.1437Z" fill="white"/>
<path d="M72.3797 22.3079C72.411 14.1555 64.8224 10.0763 61.9297 8.82049C61.589 8.66868 61.2105 8.58448 60.8239 8.57452C60.4415 8.56975 60.0624 8.63335 59.7122 8.76099C56.7383 9.87881 48.8738 13.6017 48.382 21.7727C47.7029 31.8016 53.4694 44.167 53.4694 44.167L65.8388 44.458C65.8388 44.458 72.3356 32.3811 72.3797 22.3079Z" stroke="#45413C" stroke-linecap="round" stroke-linejoin="round"/>
<path opacity="0.15" d="M73.1478 55.0678C73.6592 55.5166 75.1069 55.197 77.1724 54.1794C79.238 53.1618 81.7522 51.5296 84.1619 49.6417C86.5717 47.7538 88.6796 45.765 90.0219 44.1127C91.3643 42.4604 91.8311 41.2801 91.3198 40.8313C90.8084 40.3825 89.3607 40.7021 87.2952 41.7197C85.2296 42.7373 82.7154 44.3695 80.3057 46.2574C77.8959 48.1453 75.788 50.1341 74.4457 51.7864C73.1033 53.4386 72.6365 54.619 73.1478 55.0678Z" fill="#45413C"/>
<path d="M60.6442 37.3337C60.5996 37.1849 60.4978 37.0522 60.3541 36.9557C60.2104 36.8592 60.0327 36.8042 59.8479 36.7991C59.6631 36.7939 59.4813 36.8388 59.3301 36.927C59.1788 37.0153 59.0664 37.142 59.0099 37.288C58.0958 39.4259 57.5692 41.6645 57.4474 43.9307C57.3743 46.3801 57.8891 48.8172 58.9617 51.1003C58.9906 51.1661 59.0423 51.2232 59.1105 51.2645C59.1786 51.3057 59.26 51.3292 59.3443 51.332C59.4286 51.3348 59.512 51.3167 59.5839 51.28C59.6557 51.2434 59.7128 51.1898 59.7478 51.1261C60.982 48.9085 61.6742 46.51 61.7843 44.0693C61.8142 41.7894 61.4298 39.5187 60.6442 37.3337Z" fill="#FF851B" stroke="#45413C" stroke-linecap="round" stroke-linejoin="round"/>
<path d="M55.4366 24.4022C56.6865 25.4992 58.4108 26.1395 60.2301 26.1823C62.0495 26.2251 63.8148 25.6669 65.1377 24.6304C66.4607 23.594 67.2329 22.1642 67.2845 20.6557C67.3361 19.1471 66.6629 17.6834 65.413 16.5864C64.163 15.4894 62.4387 14.8491 60.6194 14.8063C58.8001 14.7635 57.0348 15.3217 55.7118 16.3582C54.3889 17.3946 53.6166 18.8244 53.565 20.3329C53.5134 21.8415 54.1866 23.3052 55.4366 24.4022Z" fill="#C0DCEB" stroke="#45413C" stroke-linecap="round" stroke-linejoin="round"/>
<path d="M56.9741 23.1553C57.4025 23.5312 57.916 23.8336 58.4853 24.045C59.0545 24.2564 59.6685 24.3727 60.292 24.3874C60.9155 24.4021 61.5364 24.3148 62.1193 24.1305C62.7021 23.9462 63.2355 23.6685 63.6889 23.3133C64.1423 22.958 64.5069 22.5322 64.7618 22.0602C65.0168 21.5881 65.1571 21.0791 65.1748 20.5621C65.1925 20.045 65.0872 19.5302 64.8649 19.0469C64.6427 18.5636 64.3078 18.1214 63.8794 17.7454C63.451 17.3695 62.9375 17.0671 62.3682 16.8557C61.7989 16.6443 61.185 16.528 60.5614 16.5133C59.9379 16.4986 59.317 16.5859 58.7342 16.7702C58.1513 16.9545 57.618 17.2322 57.1646 17.5874C56.7112 17.9427 56.3466 18.3684 56.0916 18.8405C55.8367 19.3126 55.6963 19.8216 55.6786 20.3386C55.6609 20.8557 55.7662 21.3705 55.9885 21.8538C56.2108 22.3371 56.5457 22.7793 56.9741 23.1553Z" fill="#00D5FF"/>
<path d="M55.6727 20.3385C55.6543 20.8563 55.7592 21.3719 55.9815 21.856C56.2037 22.3401 56.539 22.783 56.968 23.1595C57.397 23.536 57.9113 23.8387 58.4816 24.0501C59.0518 24.2616 59.6668 24.3777 60.2912 24.3918C60.7315 24.3944 61.1703 24.348 61.5958 24.2538L59.0782 16.6866C58.1164 16.9165 57.2679 17.3944 56.6556 18.051C56.0433 18.7076 55.699 19.5088 55.6727 20.3385Z" fill="#00D5FF"/>
<path d="M56.9741 23.1553C57.4025 23.5312 57.916 23.8336 58.4853 24.045C59.0545 24.2564 59.6685 24.3727 60.292 24.3874C60.9155 24.4021 61.5364 24.3148 62.1193 24.1305C62.7021 23.9462 63.2355 23.6685 63.6889 23.3133C64.1423 22.958 64.5069 22.5322 64.7618 22.0602C65.0168 21.5881 65.1571 21.0791 65.1748 20.562C65.1925 20.045 65.0872 19.5302 64.8649 19.0469C64.6427 18.5636 64.3078 18.1214 63.8794 17.7454C63.451 17.3695 62.9375 17.0671 62.3682 16.8557C61.7989 16.6443 61.185 16.528 60.5614 16.5133C59.9379 16.4986 59.317 16.5859 58.7342 16.7702C58.1513 16.9545 57.618 17.2322 57.1646 17.5874C56.7112 17.9427 56.3466 18.3684 56.0916 18.8405C55.8367 19.3126 55.6963 19.8216 55.6786 20.3386C55.6609 20.8557 55.7662 21.3705 55.9885 21.8538C56.2108 22.3371 56.5457 22.7793 56.9741 23.1553Z" stroke="#45413C" stroke-linecap="round" stroke-linejoin="round"/>
<path d="M63.9041 57.3388C63.869 58.3644 61.1129 62.6768 59.6862 64.8355C59.4247 65.2399 58.3741 65.1932 58.1135 64.7985C56.8452 62.5837 54.3885 58.1487 54.4695 57.0728C54.4742 55.6432 56.7275 53.8779 59.3256 53.9243C61.9237 53.9708 63.9517 55.9468 63.9041 57.3388Z" fill="#FF851B" stroke="#45413C" stroke-linecap="round" stroke-linejoin="round"/>
<path d="M61.3626 56.9344C61.3289 57.6595 59.8859 59.5172 59.1175 59.4918C58.3491 59.4664 57.0006 57.5283 57.06 56.8258C57.1669 56.4197 57.4572 56.0628 57.8714 55.8285C58.2855 55.5942 58.7921 55.5002 59.2872 55.5658C59.7775 55.5349 60.2638 55.6588 60.6486 55.9126C61.0334 56.1664 61.2884 56.5313 61.3626 56.9344Z" fill="#FFE500" stroke="#45413C" stroke-linecap="round" stroke-linejoin="round"/>
<path d="M88.887 65.7965C89.9708 65.4707 90.5702 64.5074 90.0736 63.6309C89.6368 62.8439 88.2649 62.7117 87.5663 62.9862C86.8678 63.2607 86.3536 64.2584 86.6615 64.9793C86.9688 65.6905 88.2358 65.995 88.887 65.7965Z" fill="white"/>
<rect x="4.2002" y="40.7961" width="10.8" height="18.9055" rx="5.4" fill="#4B73A6"/>
<rect x="7.19922" y="45.7712" width="4.2" height="8.95522" rx="2.1" fill="#D9D9D9"/>
<path d="M41.9533 8.99372C41.8172 9.77541 41.3865 10.5079 40.7159 11.0982C40.0453 11.6884 39.165 12.1099 38.1869 12.309C37.2088 12.5081 36.1769 12.4758 35.2224 12.2163C34.2678 11.9569 33.4335 11.4819 32.8255 10.8517C32.2175 10.2215 31.8632 9.46446 31.8075 8.67678C31.7519 7.88911 31.9974 7.1063 32.513 6.42775C33.0285 5.7492 33.7908 5.20551 34.7031 4.86573C35.6154 4.52594 36.6364 4.40539 37.6367 4.51937C38.9664 4.6709 40.1658 5.22589 40.9741 6.06373C41.7824 6.90157 42.1343 7.95452 41.9533 8.99372Z" fill="#B4B5B4"/>
<path d="M37.6314 7.33169C38.5416 7.44347 39.3964 7.74579 40.1054 8.20671C40.8144 8.66763 41.3513 9.27002 41.6594 9.95024C41.8142 9.63919 41.9153 9.31336 41.9602 8.98137C42.127 7.93729 41.7627 6.88372 40.9461 6.04828C40.1294 5.21285 38.926 4.66261 37.5958 4.51645C36.2656 4.3703 34.9154 4.63994 33.8368 5.26715C32.7583 5.89435 32.0381 6.82875 31.8317 7.86849C31.7376 8.54326 31.8523 9.22585 32.166 9.85859C32.5856 9.01962 33.3519 8.31491 34.3425 7.85691C35.3331 7.39891 36.491 7.214 37.6314 7.33169Z" fill="#DDDDDD"/>
<path d="M31.9782 9.45407C30.7294 10.1387 28.2152 11.6924 28.9218 12.8248C29.6284 13.9571 46.1593 6.04389 45.5842 4.92472C45.009 3.80554 41.4761 5.08272 40.2272 5.55672" stroke="#45413C" stroke-linecap="round" stroke-linejoin="round"/>
<defs>
<filter id="filter0_d_406_544" x="14.1895" y="80.9795" width="90.668" height="26.48" filterUnits="userSpaceOnUse" color-interpolation-filters="sRGB">
<feFlood flood-opacity="0" result="BackgroundImageFix"/>
<feColorMatrix in="SourceAlpha" type="matrix" values="0 0 0 0 0 0 0 0 0 0 0 0 0 0 0 0 0 0 127 0" result="hardAlpha"/>
<feOffset dy="4"/>
<feGaussianBlur stdDeviation="2"/>
<feComposite in2="hardAlpha" operator="out"/>
<feColorMatrix type="matrix" values="0 0 0 0 0 0 0 0 0 0 0 0 0 0 0 0 0 0 0.25 0"/>
<feBlend mode="normal" in2="BackgroundImageFix" result="effect1_dropShadow_406_544"/>
<feBlend mode="normal" in="SourceGraphic" in2="effect1_dropShadow_406_544" result="shape"/>
</filter>
</defs>
</svg>
